<svg xmlns="http://www.w3.org/2000/svg" aria-hidden="true" class="svg-icon article-icon icon-inline" viewBox="0 0 14 14"><path fill="#86868b" fill-opacity="35%" d="M3.63 14.007h6.935c1.352 0 2.024-.686 2.024-2.044v-5.93c0-.841-.098-1.207-.62-1.743L8.37.627c-.496-.51-.908-.62-1.639-.62H3.63c-1.345 0-2.024.692-2.024 2.05v9.906c0 1.365.673 2.044 2.024 2.044zm.046-1.051c-.673 0-1.019-.36-1.019-1.013V2.077c0-.647.346-1.019 1.026-1.019h2.905v3.794c0 .823.412 1.228 1.228 1.228h3.722v5.863c0 .653-.346 1.013-1.025 1.013H3.676zm4.257-7.862c-.26 0-.359-.105-.359-.366V1.26l3.762 3.833H7.933zm1.568 2.788H4.544a.399.399 0 0 0-.41.398.4.4 0 0 0 .41.405h4.957a.393.393 0 0 0 .398-.405.392.392 0 0 0-.398-.398zm0 2.279H4.544a.406.406 0 0 0-.41.411c0 .222.175.392.41.392h4.957c.228 0 .398-.17.398-.392a.399.399 0 0 0-.398-.411z"/></svg>