<svg xmlns="http://www.w3.org/2000/svg" xmlns:xlink="http://www.w3.org/1999/xlink" width="264.550px" height="63.540px" viewBox="0 -1562.5 11693 2808.5" aria-hidden="true" style=""><defs fill="#ffffff"><path id="MJX-57-TEX-I-1D443" d="M287 628Q287 635 230 637Q206 637 199 638T192 648Q192 649 194 659Q200 679 203 681T397 683Q587 682 600 680Q664 669 707 631T751 530Q751 453 685 389Q616 321 507 303Q500 302 402 301H307L277 182Q247 66 247 59Q247 55 248 54T255 50T272 48T305 46H336Q342 37 342 35Q342 19 335 5Q330 0 319 0Q316 0 282 1T182 2Q120 2 87 2T51 1Q33 1 33 11Q33 13 36 25Q40 41 44 43T67 46Q94 46 127 49Q141 52 146 61Q149 65 218 339T287 628ZM645 554Q645 567 643 575T634 597T609 619T560 635Q553 636 480 637Q463 637 445 637T416 636T404 636Q391 635 386 627Q384 621 367 550T332 412T314 344Q314 342 395 342H407H430Q542 342 590 392Q617 419 631 471T645 554Z" fill="#ffffff"/><path id="MJX-57-TEX-N-28" d="M94 250Q94 319 104 381T127 488T164 576T202 643T244 695T277 729T302 750H315H319Q333 750 333 741Q333 738 316 720T275 667T226 581T184 443T167 250T184 58T225 -81T274 -167T316 -220T333 -241Q333 -250 318 -250H315H302L274 -226Q180 -141 137 -14T94 250Z" fill="#ffffff"/><path id="MJX-57-TEX-I-1D465" d="M52 289Q59 331 106 386T222 442Q257 442 286 424T329 379Q371 442 430 442Q467 442 494 420T522 361Q522 332 508 314T481 292T458 288Q439 288 427 299T415 328Q415 374 465 391Q454 404 425 404Q412 404 406 402Q368 386 350 336Q290 115 290 78Q290 50 306 38T341 26Q378 26 414 59T463 140Q466 150 469 151T485 153H489Q504 153 504 145Q504 144 502 134Q486 77 440 33T333 -11Q263 -11 227 52Q186 -10 133 -10H127Q78 -10 57 16T35 71Q35 103 54 123T99 143Q142 143 142 101Q142 81 130 66T107 46T94 41L91 40Q91 39 97 36T113 29T132 26Q168 26 194 71Q203 87 217 139T245 247T261 313Q266 340 266 352Q266 380 251 392T217 404Q177 404 142 372T93 290Q91 281 88 280T72 278H58Q52 284 52 289Z" fill="#ffffff"/><path id="MJX-57-TEX-N-31" d="M213 578L200 573Q186 568 160 563T102 556H83V602H102Q149 604 189 617T245 641T273 663Q275 666 285 666Q294 666 302 660V361L303 61Q310 54 315 52T339 48T401 46H427V0H416Q395 3 257 3Q121 3 100 0H88V46H114Q136 46 152 46T177 47T193 50T201 52T207 57T213 61V578Z" fill="#ffffff"/><path id="MJX-57-TEX-N-2E" d="M78 60Q78 84 95 102T138 120Q162 120 180 104T199 61Q199 36 182 18T139 0T96 17T78 60Z" fill="#ffffff"/><path id="MJX-57-TEX-I-1D45B" d="M21 287Q22 293 24 303T36 341T56 388T89 425T135 442Q171 442 195 424T225 390T231 369Q231 367 232 367L243 378Q304 442 382 442Q436 442 469 415T503 336T465 179T427 52Q427 26 444 26Q450 26 453 27Q482 32 505 65T540 145Q542 153 560 153Q580 153 580 145Q580 144 576 130Q568 101 554 73T508 17T439 -10Q392 -10 371 17T350 73Q350 92 386 193T423 345Q423 404 379 404H374Q288 404 229 303L222 291L189 157Q156 26 151 16Q138 -11 108 -11Q95 -11 87 -5T76 7T74 17Q74 30 112 180T152 343Q153 348 153 366Q153 405 129 405Q91 405 66 305Q60 285 60 284Q58 278 41 278H27Q21 284 21 287Z" fill="#ffffff"/><path id="MJX-57-TEX-N-7C" d="M139 -249H137Q125 -249 119 -235V251L120 737Q130 750 139 750Q152 750 159 735V-235Q151 -249 141 -249H139Z" fill="#ffffff"/><path id="MJX-57-TEX-I-1D466" d="M21 287Q21 301 36 335T84 406T158 442Q199 442 224 419T250 355Q248 336 247 334Q247 331 231 288T198 191T182 105Q182 62 196 45T238 27Q261 27 281 38T312 61T339 94Q339 95 344 114T358 173T377 247Q415 397 419 404Q432 431 462 431Q475 431 483 424T494 412T496 403Q496 390 447 193T391 -23Q363 -106 294 -155T156 -205Q111 -205 77 -183T43 -117Q43 -95 50 -80T69 -58T89 -48T106 -45Q150 -45 150 -87Q150 -107 138 -122T115 -142T102 -147L99 -148Q101 -153 118 -160T152 -167H160Q177 -167 186 -165Q219 -156 247 -127T290 -65T313 -9T321 21L315 17Q309 13 296 6T270 -6Q250 -11 231 -11Q185 -11 150 11T104 82Q103 89 103 113Q103 170 138 262T173 379Q173 380 173 381Q173 390 173 393T169 400T158 404H154Q131 404 112 385T82 344T65 302T57 280Q55 278 41 278H27Q21 284 21 287Z" fill="#ffffff"/><path id="MJX-57-TEX-N-29" d="M60 749L64 750Q69 750 74 750H86L114 726Q208 641 251 514T294 250Q294 182 284 119T261 12T224 -76T186 -143T145 -194T113 -227T90 -246Q87 -249 86 -250H74Q66 -250 63 -250T58 -247T55 -238Q56 -237 66 -225Q221 -64 221 250T66 725Q56 737 55 738Q55 746 60 749Z" fill="#ffffff"/><path id="MJX-57-TEX-N-3D" d="M56 347Q56 360 70 367H707Q722 359 722 347Q722 336 708 328L390 327H72Q56 332 56 347ZM56 153Q56 168 72 173H708Q722 163 722 153Q722 140 707 133H70Q56 140 56 153Z" fill="#ffffff"/><path id="MJX-57-TEX-LO-220F" d="M220 812Q220 813 218 819T214 829T208 840T199 853T185 866T166 878T140 887T107 893T66 896H56V950H1221V896H1211Q1080 896 1058 812V-311Q1076 -396 1211 -396H1221V-450H725V-396H735Q864 -396 888 -314Q889 -312 889 -311V896H388V292L389 -311Q405 -396 542 -396H552V-450H56V-396H66Q195 -396 219 -314Q220 -312 220 -311V812Z" fill="#ffffff"/><path id="MJX-57-TEX-I-1D456" d="M184 600Q184 624 203 642T247 661Q265 661 277 649T290 619Q290 596 270 577T226 557Q211 557 198 567T184 600ZM21 287Q21 295 30 318T54 369T98 420T158 442Q197 442 223 419T250 357Q250 340 236 301T196 196T154 83Q149 61 149 51Q149 26 166 26Q175 26 185 29T208 43T235 78T260 137Q263 149 265 151T282 153Q302 153 302 143Q302 135 293 112T268 61T223 11T161 -11Q129 -11 102 10T74 74Q74 91 79 106T122 220Q160 321 166 341T173 380Q173 404 156 404H154Q124 404 99 371T61 287Q60 286 59 284T58 281T56 279T53 278T49 278T41 278H27Q21 284 21 287Z" fill="#ffffff"/></defs><g stroke="currentColor" fill="currentColor" stroke-width="0" transform="scale(1,-1)"><g data-mml-node="math"><g data-mml-node="mi"><use data-c="1D443" xlink:href="#MJX-57-TEX-I-1D443" fill="#ffffff"/></g><g data-mml-node="mo" transform="translate(751,0)"><use data-c="28" xlink:href="#MJX-57-TEX-N-28" fill="#ffffff"/></g><g data-mml-node="msub" transform="translate(1140,0)"><g data-mml-node="mi"><use data-c="1D465" xlink:href="#MJX-57-TEX-I-1D465" fill="#ffffff"/></g><g data-mml-node="mn" transform="translate(605,-150) scale(0.707)"><use data-c="31" xlink:href="#MJX-57-TEX-N-31" fill="#ffffff"/></g></g><g data-mml-node="mo" transform="translate(2148.6,0)"><use data-c="2E" xlink:href="#MJX-57-TEX-N-2E" fill="#ffffff"/></g><g data-mml-node="mo" transform="translate(2593.2,0)"><use data-c="2E" xlink:href="#MJX-57-TEX-N-2E" fill="#ffffff"/></g><g data-mml-node="mo" transform="translate(3037.9,0)"><use data-c="2E" xlink:href="#MJX-57-TEX-N-2E" fill="#ffffff"/></g><g data-mml-node="msub" transform="translate(3482.6,0)"><g data-mml-node="mi"><use data-c="1D465" xlink:href="#MJX-57-TEX-I-1D465" fill="#ffffff"/></g><g data-mml-node="mi" transform="translate(605,-150) scale(0.707)"><use data-c="1D45B" xlink:href="#MJX-57-TEX-I-1D45B" fill="#ffffff"/></g></g><g data-mml-node="TeXAtom" data-mjx-texclass="ORD" transform="translate(4561.8,0)"><g data-mml-node="mo" transform="translate(0 -0.5)"><use data-c="7C" xlink:href="#MJX-57-TEX-N-7C" fill="#ffffff"/></g></g><g data-mml-node="mi" transform="translate(4839.8,0)"><use data-c="1D466" xlink:href="#MJX-57-TEX-I-1D466" fill="#ffffff"/></g><g data-mml-node="mo" transform="translate(5329.8,0)"><use data-c="29" xlink:href="#MJX-57-TEX-N-29" fill="#ffffff"/></g><g data-mml-node="mo" transform="translate(5996.6,0)"><use data-c="3D" xlink:href="#MJX-57-TEX-N-3D" fill="#ffffff"/></g><g data-mml-node="munderover" transform="translate(7052.4,0)"><g data-mml-node="mo"><use data-c="220F" xlink:href="#MJX-57-TEX-LO-220F" fill="#ffffff"/></g><g data-mml-node="TeXAtom" transform="translate(65.2,-1087.9) scale(0.707)" data-mjx-texclass="ORD"><g data-mml-node="mi"><use data-c="1D456" xlink:href="#MJX-57-TEX-I-1D456" fill="#ffffff"/></g><g data-mml-node="mo" transform="translate(345,0)"><use data-c="3D" xlink:href="#MJX-57-TEX-N-3D" fill="#ffffff"/></g><g data-mml-node="mn" transform="translate(1123,0)"><use data-c="31" xlink:href="#MJX-57-TEX-N-31" fill="#ffffff"/></g></g><g data-mml-node="TeXAtom" transform="translate(426.9,1150) scale(0.707)" data-mjx-texclass="ORD"><g data-mml-node="mi"><use data-c="1D45B" xlink:href="#MJX-57-TEX-I-1D45B" fill="#ffffff"/></g></g></g><g data-mml-node="mi" transform="translate(8497,0)"><use data-c="1D443" xlink:href="#MJX-57-TEX-I-1D443" fill="#ffffff"/></g><g data-mml-node="mo" transform="translate(9248,0)"><use data-c="28" xlink:href="#MJX-57-TEX-N-28" fill="#ffffff"/></g><g data-mml-node="msub" transform="translate(9637,0)"><g data-mml-node="mi"><use data-c="1D465" xlink:href="#MJX-57-TEX-I-1D465" fill="#ffffff"/></g><g data-mml-node="mi" transform="translate(605,-150) scale(0.707)"><use data-c="1D456" xlink:href="#MJX-57-TEX-I-1D456" fill="#ffffff"/></g></g><g data-mml-node="TeXAtom" data-mjx-texclass="ORD" transform="translate(10536,0)"><g data-mml-node="mo" transform="translate(0 -0.5)"><use data-c="7C" xlink:href="#MJX-57-TEX-N-7C" fill="#ffffff"/></g></g><g data-mml-node="mi" transform="translate(10814,0)"><use data-c="1D466" xlink:href="#MJX-57-TEX-I-1D466" fill="#ffffff"/></g><g data-mml-node="mo" transform="translate(11304,0)"><use data-c="29" xlink:href="#MJX-57-TEX-N-29" fill="#ffffff"/></g></g></g></svg>