<svg xmlns="http://www.w3.org/2000/svg" xmlns:xlink="http://www.w3.org/1999/xlink" width="99.800px" height="54.300px" viewBox="0 -1450 4411.2 2400" aria-hidden="true" style=""><defs fill="#ffffff"><path id="MJX-91-TEX-I-1D464" d="M580 385Q580 406 599 424T641 443Q659 443 674 425T690 368Q690 339 671 253Q656 197 644 161T609 80T554 12T482 -11Q438 -11 404 5T355 48Q354 47 352 44Q311 -11 252 -11Q226 -11 202 -5T155 14T118 53T104 116Q104 170 138 262T173 379Q173 380 173 381Q173 390 173 393T169 400T158 404H154Q131 404 112 385T82 344T65 302T57 280Q55 278 41 278H27Q21 284 21 287Q21 293 29 315T52 366T96 418T161 441Q204 441 227 416T250 358Q250 340 217 250T184 111Q184 65 205 46T258 26Q301 26 334 87L339 96V119Q339 122 339 128T340 136T341 143T342 152T345 165T348 182T354 206T362 238T373 281Q402 395 406 404Q419 431 449 431Q468 431 475 421T483 402Q483 389 454 274T422 142Q420 131 420 107V100Q420 85 423 71T442 42T487 26Q558 26 600 148Q609 171 620 213T632 273Q632 306 619 325T593 357T580 385Z" fill="#ffffff"/><path id="MJX-91-TEX-N-2192" d="M56 237T56 250T70 270H835Q719 357 692 493Q692 494 692 496T691 499Q691 511 708 511H711Q720 511 723 510T729 506T732 497T735 481T743 456Q765 389 816 336T935 261Q944 258 944 250Q944 244 939 241T915 231T877 212Q836 186 806 152T761 85T740 35T732 4Q730 -6 727 -8T711 -11Q691 -11 691 0Q691 7 696 25Q728 151 835 230H70Q56 237 56 250Z" fill="#ffffff"/><path id="MJX-91-TEX-N-3D" d="M56 347Q56 360 70 367H707Q722 359 722 347Q722 336 708 328L390 327H72Q56 332 56 347ZM56 153Q56 168 72 173H708Q722 163 722 153Q722 140 707 133H70Q56 140 56 153Z" fill="#ffffff"/><path id="MJX-91-TEX-N-32" d="M109 429Q82 429 66 447T50 491Q50 562 103 614T235 666Q326 666 387 610T449 465Q449 422 429 383T381 315T301 241Q265 210 201 149L142 93L218 92Q375 92 385 97Q392 99 409 186V189H449V186Q448 183 436 95T421 3V0H50V19V31Q50 38 56 46T86 81Q115 113 136 137Q145 147 170 174T204 211T233 244T261 278T284 308T305 340T320 369T333 401T340 431T343 464Q343 527 309 573T212 619Q179 619 154 602T119 569T109 550Q109 549 114 549Q132 549 151 535T170 489Q170 464 154 447T109 429Z" fill="#ffffff"/><path id="MJX-91-TEX-N-A0" d="" fill="#ffffff"/><path id="MJX-91-TEX-N-2212" d="M84 237T84 250T98 270H679Q694 262 694 250T679 230H98Q84 237 84 250Z" fill="#ffffff"/><path id="MJX-91-TEX-N-31" d="M213 578L200 573Q186 568 160 563T102 556H83V602H102Q149 604 189 617T245 641T273 663Q275 666 285 666Q294 666 302 660V361L303 61Q310 54 315 52T339 48T401 46H427V0H416Q395 3 257 3Q121 3 100 0H88V46H114Q136 46 152 46T177 47T193 50T201 52T207 57T213 61V578Z" fill="#ffffff"/><path id="MJX-91-TEX-SO-5D" d="M22 810V850H214V-349H22V-309H174V810H22Z" fill="#ffffff"/></defs><g stroke="currentColor" fill="currentColor" stroke-width="0" transform="scale(1,-1)"><g data-mml-node="math"><g data-mml-node="mover"><g data-mml-node="mi"><use data-c="1D464" xlink:href="#MJX-91-TEX-I-1D464" fill="#ffffff"/></g><g data-mml-node="mo" transform="translate(441.3,559) translate(-500 0)"><use data-c="2192" xlink:href="#MJX-91-TEX-N-2192" fill="#ffffff"/></g></g><g data-mml-node="mo" transform="translate(993.8,0)"><use data-c="3D" xlink:href="#MJX-91-TEX-N-3D" fill="#ffffff"/></g><g data-mml-node="mtable" transform="translate(1771.8,0)"><g data-mml-node="mtr" transform="translate(0,700)"><g data-mml-node="mtd" transform="translate(861.2,0)"><g data-mml-node="mn"><use data-c="32" xlink:href="#MJX-91-TEX-N-32" fill="#ffffff"/></g></g></g><g data-mml-node="mtr" transform="translate(0,-700)"><g data-mml-node="mtd"><g data-mml-node="mtext"><use data-c="A0" xlink:href="#MJX-91-TEX-N-A0" fill="#ffffff"/></g><g data-mml-node="mo" transform="translate(472.2,0)"><use data-c="2212" xlink:href="#MJX-91-TEX-N-2212" fill="#ffffff"/></g><g data-mml-node="mn" transform="translate(1472.4,0)"><use data-c="31" xlink:href="#MJX-91-TEX-N-31" fill="#ffffff"/></g><g data-mml-node="mtext" transform="translate(1972.4,0)"><use data-c="A0" xlink:href="#MJX-91-TEX-N-A0" fill="#ffffff"/></g></g></g></g><g data-mml-node="TeXAtom" data-mjx-texclass="CLOSE" transform="translate(3994.2,0)"><g data-mml-node="mo" transform="translate(0 -0.5)"><use data-c="5D" xlink:href="#MJX-91-TEX-SO-5D" fill="#ffffff"/></g></g></g></g></svg>