<?xml version="1.0" encoding="UTF-8" standalone="no" ?>
<svg xmlns="http://www.w3.org/2000/svg" width="60.340px" height="85.970px" viewBox="0 -2150 2667 3800" xmlns:xlink="http://www.w3.org/1999/xlink" aria-hidden="true" style=""><defs><path id="MJX-114-TEX-N-31" d="M213 578L200 573Q186 568 160 563T102 556H83V602H102Q149 604 189 617T245 641T273 663Q275 666 285 666Q294 666 302 660V361L303 61Q310 54 315 52T339 48T401 46H427V0H416Q395 3 257 3Q121 3 100 0H88V46H114Q136 46 152 46T177 47T193 50T201 52T207 57T213 61V578Z"></path><path id="MJX-114-TEX-N-A0" d=""></path><path id="MJX-114-TEX-N-30" d="M96 585Q152 666 249 666Q297 666 345 640T423 548Q460 465 460 320Q460 165 417 83Q397 41 362 16T301 -15T250 -22Q224 -22 198 -16T137 16T82 83Q39 165 39 320Q39 494 96 585ZM321 597Q291 629 250 629Q208 629 178 597Q153 571 145 525T137 333Q137 175 145 125T181 46Q209 16 250 16Q290 16 318 46Q347 76 354 130T362 333Q362 478 354 524T321 597Z"></path><path id="MJX-114-TEX-SO-5D" d="M22 810V850H214V-349H22V-309H174V810H22Z"></path></defs><g stroke="currentColor" fill="currentColor" stroke-width="0" transform="scale(1,-1)"><g data-mml-node="math"><g data-mml-node="mtable"><g data-mml-node="mtr" transform="translate(0,1400)"><g data-mml-node="mtd" transform="translate(125,0)"><g data-mml-node="mn"><use data-c="31" xlink:href="#MJX-114-TEX-N-31"></use></g><g data-mml-node="mtext" transform="translate(500,0)"><use data-c="A0" xlink:href="#MJX-114-TEX-N-A0"></use></g><g data-mml-node="mn" transform="translate(750,0)"><use data-c="30" xlink:href="#MJX-114-TEX-N-30"></use></g><g data-mml-node="mtext" transform="translate(1250,0)"><use data-c="A0" xlink:href="#MJX-114-TEX-N-A0"></use></g><g data-mml-node="mn" transform="translate(1500,0)"><use data-c="30" xlink:href="#MJX-114-TEX-N-30"></use></g></g></g><g data-mml-node="mtr"><g data-mml-node="mtd"><g data-mml-node="mtext"><use data-c="A0" xlink:href="#MJX-114-TEX-N-A0"></use></g><g data-mml-node="mn" transform="translate(250,0)"><use data-c="30" xlink:href="#MJX-114-TEX-N-30"></use></g><g data-mml-node="mtext" transform="translate(750,0)"><use data-c="A0" xlink:href="#MJX-114-TEX-N-A0"></use></g><g data-mml-node="mn" transform="translate(1000,0)"><use data-c="31" xlink:href="#MJX-114-TEX-N-31"></use></g><g data-mml-node="mtext" transform="translate(1500,0)"><use data-c="A0" xlink:href="#MJX-114-TEX-N-A0"></use></g><g data-mml-node="mn" transform="translate(1750,0)"><use data-c="30" xlink:href="#MJX-114-TEX-N-30"></use></g></g></g><g data-mml-node="mtr" transform="translate(0,-1400)"><g data-mml-node="mtd" transform="translate(125,0)"><g data-mml-node="mn"><use data-c="30" xlink:href="#MJX-114-TEX-N-30"></use></g><g data-mml-node="mtext" transform="translate(500,0)"><use data-c="A0" xlink:href="#MJX-114-TEX-N-A0"></use></g><g data-mml-node="mn" transform="translate(750,0)"><use data-c="30" xlink:href="#MJX-114-TEX-N-30"></use></g><g data-mml-node="mtext" transform="translate(1250,0)"><use data-c="A0" xlink:href="#MJX-114-TEX-N-A0"></use></g><g data-mml-node="mn" transform="translate(1500,0)"><use data-c="31" xlink:href="#MJX-114-TEX-N-31"></use></g></g></g></g><g data-mml-node="TeXAtom" data-mjx-texclass="CLOSE" transform="translate(2250,0)"><g data-mml-node="mo" transform="translate(0 -0.5)"><use data-c="5D" xlink:href="#MJX-114-TEX-SO-5D"></use></g></g></g></g></svg>