<svg xmlns="http://www.w3.org/2000/svg" xmlns:xlink="http://www.w3.org/1999/xlink" width="221.150px" height="54.300px" viewBox="0 -1450 9774.9 2400" aria-hidden="true" style=""><defs fill="#ffffff"><path id="MJX-101-TEX-I-1D463" d="M173 380Q173 405 154 405Q130 405 104 376T61 287Q60 286 59 284T58 281T56 279T53 278T49 278T41 278H27Q21 284 21 287Q21 294 29 316T53 368T97 419T160 441Q202 441 225 417T249 361Q249 344 246 335Q246 329 231 291T200 202T182 113Q182 86 187 69Q200 26 250 26Q287 26 319 60T369 139T398 222T409 277Q409 300 401 317T383 343T365 361T357 383Q357 405 376 424T417 443Q436 443 451 425T467 367Q467 340 455 284T418 159T347 40T241 -11Q177 -11 139 22Q102 54 102 117Q102 148 110 181T151 298Q173 362 173 380Z" fill="#ffffff"/><path id="MJX-101-TEX-I-1D45B" d="M21 287Q22 293 24 303T36 341T56 388T89 425T135 442Q171 442 195 424T225 390T231 369Q231 367 232 367L243 378Q304 442 382 442Q436 442 469 415T503 336T465 179T427 52Q427 26 444 26Q450 26 453 27Q482 32 505 65T540 145Q542 153 560 153Q580 153 580 145Q580 144 576 130Q568 101 554 73T508 17T439 -10Q392 -10 371 17T350 73Q350 92 386 193T423 345Q423 404 379 404H374Q288 404 229 303L222 291L189 157Q156 26 151 16Q138 -11 108 -11Q95 -11 87 -5T76 7T74 17Q74 30 112 180T152 343Q153 348 153 366Q153 405 129 405Q91 405 66 305Q60 285 60 284Q58 278 41 278H27Q21 284 21 287Z" fill="#ffffff"/><path id="MJX-101-TEX-I-1D462" d="M21 287Q21 295 30 318T55 370T99 420T158 442Q204 442 227 417T250 358Q250 340 216 246T182 105Q182 62 196 45T238 27T291 44T328 78L339 95Q341 99 377 247Q407 367 413 387T427 416Q444 431 463 431Q480 431 488 421T496 402L420 84Q419 79 419 68Q419 43 426 35T447 26Q469 29 482 57T512 145Q514 153 532 153Q551 153 551 144Q550 139 549 130T540 98T523 55T498 17T462 -8Q454 -10 438 -10Q372 -10 347 46Q345 45 336 36T318 21T296 6T267 -6T233 -11Q189 -11 155 7Q103 38 103 113Q103 170 138 262T173 379Q173 380 173 381Q173 390 173 393T169 400T158 404H154Q131 404 112 385T82 344T65 302T57 280Q55 278 41 278H27Q21 284 21 287Z" fill="#ffffff"/><path id="MJX-101-TEX-I-1D452" d="M39 168Q39 225 58 272T107 350T174 402T244 433T307 442H310Q355 442 388 420T421 355Q421 265 310 237Q261 224 176 223Q139 223 138 221Q138 219 132 186T125 128Q125 81 146 54T209 26T302 45T394 111Q403 121 406 121Q410 121 419 112T429 98T420 82T390 55T344 24T281 -1T205 -11Q126 -11 83 42T39 168ZM373 353Q367 405 305 405Q272 405 244 391T199 357T170 316T154 280T149 261Q149 260 169 260Q282 260 327 284T373 353Z" fill="#ffffff"/><path id="MJX-101-TEX-I-1D45C" d="M201 -11Q126 -11 80 38T34 156Q34 221 64 279T146 380Q222 441 301 441Q333 441 341 440Q354 437 367 433T402 417T438 387T464 338T476 268Q476 161 390 75T201 -11ZM121 120Q121 70 147 48T206 26Q250 26 289 58T351 142Q360 163 374 216T388 308Q388 352 370 375Q346 405 306 405Q243 405 195 347Q158 303 140 230T121 120Z" fill="#ffffff"/><path id="MJX-101-TEX-S4-2192" d="M56 237T56 250T70 270H835Q719 357 692 493Q692 494 692 496T691 499Q691 511 708 511H711Q720 511 723 510T729 506T732 497T735 481T743 456Q765 389 816 336T935 261Q944 258 944 250Q944 244 939 241T915 231T877 212Q836 186 806 152T761 85T740 35T732 4Q730 -6 727 -8T711 -11Q691 -11 691 0Q691 7 696 25Q728 151 835 230H70Q56 237 56 250Z" fill="#ffffff"/><path id="MJX-101-TEX-S4-2212" d="M84 237T84 250T98 270H679Q694 262 694 250T679 230H98Q84 237 84 250Z" fill="#ffffff"/><path id="MJX-101-TEX-N-3D" d="M56 347Q56 360 70 367H707Q722 359 722 347Q722 336 708 328L390 327H72Q56 332 56 347ZM56 153Q56 168 72 173H708Q722 163 722 153Q722 140 707 133H70Q56 140 56 153Z" fill="#ffffff"/><path id="MJX-101-TEX-N-33" d="M127 463Q100 463 85 480T69 524Q69 579 117 622T233 665Q268 665 277 664Q351 652 390 611T430 522Q430 470 396 421T302 350L299 348Q299 347 308 345T337 336T375 315Q457 262 457 175Q457 96 395 37T238 -22Q158 -22 100 21T42 130Q42 158 60 175T105 193Q133 193 151 175T169 130Q169 119 166 110T159 94T148 82T136 74T126 70T118 67L114 66Q165 21 238 21Q293 21 321 74Q338 107 338 175V195Q338 290 274 322Q259 328 213 329L171 330L168 332Q166 335 166 348Q166 366 174 366Q202 366 232 371Q266 376 294 413T322 525V533Q322 590 287 612Q265 626 240 626Q208 626 181 615T143 592T132 580H135Q138 579 143 578T153 573T165 566T175 555T183 540T186 520Q186 498 172 481T127 463Z" fill="#ffffff"/><path id="MJX-101-TEX-N-A0" d="" fill="#ffffff"/><path id="MJX-101-TEX-N-30" d="M96 585Q152 666 249 666Q297 666 345 640T423 548Q460 465 460 320Q460 165 417 83Q397 41 362 16T301 -15T250 -22Q224 -22 198 -16T137 16T82 83Q39 165 39 320Q39 494 96 585ZM321 597Q291 629 250 629Q208 629 178 597Q153 571 145 525T137 333Q137 175 145 125T181 46Q209 16 250 16Q290 16 318 46Q347 76 354 130T362 333Q362 478 354 524T321 597Z" fill="#ffffff"/><path id="MJX-101-TEX-SO-5D" d="M22 810V850H214V-349H22V-309H174V810H22Z" fill="#ffffff"/><path id="MJX-101-TEX-N-2B" d="M56 237T56 250T70 270H369V420L370 570Q380 583 389 583Q402 583 409 568V270H707Q722 262 722 250T707 230H409V-68Q401 -82 391 -82H389H387Q375 -82 369 -68V230H70Q56 237 56 250Z" fill="#ffffff"/><path id="MJX-101-TEX-N-32" d="M109 429Q82 429 66 447T50 491Q50 562 103 614T235 666Q326 666 387 610T449 465Q449 422 429 383T381 315T301 241Q265 210 201 149L142 93L218 92Q375 92 385 97Q392 99 409 186V189H449V186Q448 183 436 95T421 3V0H50V19V31Q50 38 56 46T86 81Q115 113 136 137Q145 147 170 174T204 211T233 244T261 278T284 308T305 340T320 369T333 401T340 431T343 464Q343 527 309 573T212 619Q179 619 154 602T119 569T109 550Q109 549 114 549Q132 549 151 535T170 489Q170 464 154 447T109 429Z" fill="#ffffff"/></defs><g stroke="currentColor" fill="currentColor" stroke-width="0" transform="scale(1,-1)"><g data-mml-node="math"><g data-mml-node="mover"><g data-mml-node="msub"><g data-mml-node="mi"><use data-c="1D463" xlink:href="#MJX-101-TEX-I-1D463" fill="#ffffff"/></g><g data-mml-node="TeXAtom" transform="translate(518,-150) scale(0.707)" data-mjx-texclass="ORD"><g data-mml-node="mi"><use data-c="1D45B" xlink:href="#MJX-101-TEX-I-1D45B" fill="#ffffff"/></g><g data-mml-node="mi" transform="translate(600,0)"><use data-c="1D462" xlink:href="#MJX-101-TEX-I-1D462" fill="#ffffff"/></g><g data-mml-node="mi" transform="translate(1172,0)"><use data-c="1D452" xlink:href="#MJX-101-TEX-I-1D452" fill="#ffffff"/></g><g data-mml-node="mi" transform="translate(1638,0)"><use data-c="1D463" xlink:href="#MJX-101-TEX-I-1D463" fill="#ffffff"/></g><g data-mml-node="mi" transform="translate(2123,0)"><use data-c="1D45C" xlink:href="#MJX-101-TEX-I-1D45C" fill="#ffffff"/></g></g></g><g data-mml-node="mo" transform="translate(0,630)"><use data-c="2192" xlink:href="#MJX-101-TEX-S4-2192" transform="translate(1412.1,0)" fill="#ffffff"/><svg width="1512.1" height="865" x="0" y="-182" viewBox="378 -182 1512.1 865"><use data-c="2212" xlink:href="#MJX-101-TEX-S4-2212" transform="scale(2.915,1)" fill="#ffffff"/></svg></g></g><g data-mml-node="mo" transform="translate(2689.9,0)"><use data-c="3D" xlink:href="#MJX-101-TEX-N-3D" fill="#ffffff"/></g><g data-mml-node="mtable" transform="translate(3467.9,0)"><g data-mml-node="mtr" transform="translate(0,700)"><g data-mml-node="mtd" transform="translate(250,0)"><g data-mml-node="mn"><use data-c="33" xlink:href="#MJX-101-TEX-N-33" fill="#ffffff"/></g></g></g><g data-mml-node="mtr" transform="translate(0,-700)"><g data-mml-node="mtd"><g data-mml-node="mtext"><use data-c="A0" xlink:href="#MJX-101-TEX-N-A0" fill="#ffffff"/></g><g data-mml-node="mn" transform="translate(250,0)"><use data-c="30" xlink:href="#MJX-101-TEX-N-30" fill="#ffffff"/></g><g data-mml-node="mtext" transform="translate(750,0)"><use data-c="A0" xlink:href="#MJX-101-TEX-N-A0" fill="#ffffff"/></g></g></g></g><g data-mml-node="TeXAtom" data-mjx-texclass="CLOSE" transform="translate(4467.9,0)"><g data-mml-node="mo" transform="translate(0 -0.5)"><use data-c="5D" xlink:href="#MJX-101-TEX-SO-5D" fill="#ffffff"/></g></g><g data-mml-node="mo" transform="translate(5107.1,0)"><use data-c="2B" xlink:href="#MJX-101-TEX-N-2B" fill="#ffffff"/></g><g data-mml-node="mtable" transform="translate(5885.1,0)"><g data-mml-node="mtr" transform="translate(0,700)"><g data-mml-node="mtd" transform="translate(250,0)"><g data-mml-node="mn"><use data-c="30" xlink:href="#MJX-101-TEX-N-30" fill="#ffffff"/></g></g></g><g data-mml-node="mtr" transform="translate(0,-700)"><g data-mml-node="mtd"><g data-mml-node="mtext"><use data-c="A0" xlink:href="#MJX-101-TEX-N-A0" fill="#ffffff"/></g><g data-mml-node="mn" transform="translate(250,0)"><use data-c="32" xlink:href="#MJX-101-TEX-N-32" fill="#ffffff"/></g><g data-mml-node="mtext" transform="translate(750,0)"><use data-c="A0" xlink:href="#MJX-101-TEX-N-A0" fill="#ffffff"/></g></g></g></g><g data-mml-node="TeXAtom" data-mjx-texclass="CLOSE" transform="translate(6885.1,0)"><g data-mml-node="mo" transform="translate(0 -0.5)"><use data-c="5D" xlink:href="#MJX-101-TEX-SO-5D" fill="#ffffff"/></g></g><g data-mml-node="mo" transform="translate(7579.9,0)"><use data-c="3D" xlink:href="#MJX-101-TEX-N-3D" fill="#ffffff"/></g><g data-mml-node="mtable" transform="translate(8357.9,0)"><g data-mml-node="mtr" transform="translate(0,700)"><g data-mml-node="mtd" transform="translate(250,0)"><g data-mml-node="mn"><use data-c="33" xlink:href="#MJX-101-TEX-N-33" fill="#ffffff"/></g></g></g><g data-mml-node="mtr" transform="translate(0,-700)"><g data-mml-node="mtd"><g data-mml-node="mtext"><use data-c="A0" xlink:href="#MJX-101-TEX-N-A0" fill="#ffffff"/></g><g data-mml-node="mn" transform="translate(250,0)"><use data-c="32" xlink:href="#MJX-101-TEX-N-32" fill="#ffffff"/></g><g data-mml-node="mtext" transform="translate(750,0)"><use data-c="A0" xlink:href="#MJX-101-TEX-N-A0" fill="#ffffff"/></g></g></g></g><g data-mml-node="TeXAtom" data-mjx-texclass="CLOSE" transform="translate(9357.9,0)"><g data-mml-node="mo" transform="translate(0 -0.5)"><use data-c="5D" xlink:href="#MJX-101-TEX-SO-5D" fill="#ffffff"/></g></g></g></g></svg>