<svg xmlns="http://www.w3.org/2000/svg" xmlns:xlink="http://www.w3.org/1999/xlink" width="65.270px" height="54.300px" viewBox="0 -1450 2884.8 2400" aria-hidden="true" style=""><defs fill="#ffffff"><path id="MJX-97-TEX-I-1D457" d="M297 596Q297 627 318 644T361 661Q378 661 389 651T403 623Q403 595 384 576T340 557Q322 557 310 567T297 596ZM288 376Q288 405 262 405Q240 405 220 393T185 362T161 325T144 293L137 279Q135 278 121 278H107Q101 284 101 286T105 299Q126 348 164 391T252 441Q253 441 260 441T272 442Q296 441 316 432Q341 418 354 401T367 348V332L318 133Q267 -67 264 -75Q246 -125 194 -164T75 -204Q25 -204 7 -183T-12 -137Q-12 -110 7 -91T53 -71Q70 -71 82 -81T95 -112Q95 -148 63 -167Q69 -168 77 -168Q111 -168 139 -140T182 -74L193 -32Q204 11 219 72T251 197T278 308T289 365Q289 372 288 376Z" fill="#ffffff"/><path id="MJX-97-TEX-N-2192" d="M56 237T56 250T70 270H835Q719 357 692 493Q692 494 692 496T691 499Q691 511 708 511H711Q720 511 723 510T729 506T732 497T735 481T743 456Q765 389 816 336T935 261Q944 258 944 250Q944 244 939 241T915 231T877 212Q836 186 806 152T761 85T740 35T732 4Q730 -6 727 -8T711 -11Q691 -11 691 0Q691 7 696 25Q728 151 835 230H70Q56 237 56 250Z" fill="#ffffff"/><path id="MJX-97-TEX-N-3D" d="M56 347Q56 360 70 367H707Q722 359 722 347Q722 336 708 328L390 327H72Q56 332 56 347ZM56 153Q56 168 72 173H708Q722 163 722 153Q722 140 707 133H70Q56 140 56 153Z" fill="#ffffff"/><path id="MJX-97-TEX-N-30" d="M96 585Q152 666 249 666Q297 666 345 640T423 548Q460 465 460 320Q460 165 417 83Q397 41 362 16T301 -15T250 -22Q224 -22 198 -16T137 16T82 83Q39 165 39 320Q39 494 96 585ZM321 597Q291 629 250 629Q208 629 178 597Q153 571 145 525T137 333Q137 175 145 125T181 46Q209 16 250 16Q290 16 318 46Q347 76 354 130T362 333Q362 478 354 524T321 597Z" fill="#ffffff"/><path id="MJX-97-TEX-N-A0" d="" fill="#ffffff"/><path id="MJX-97-TEX-N-31" d="M213 578L200 573Q186 568 160 563T102 556H83V602H102Q149 604 189 617T245 641T273 663Q275 666 285 666Q294 666 302 660V361L303 61Q310 54 315 52T339 48T401 46H427V0H416Q395 3 257 3Q121 3 100 0H88V46H114Q136 46 152 46T177 47T193 50T201 52T207 57T213 61V578Z" fill="#ffffff"/><path id="MJX-97-TEX-SO-5D" d="M22 810V850H214V-349H22V-309H174V810H22Z" fill="#ffffff"/></defs><g stroke="currentColor" fill="currentColor" stroke-width="0" transform="scale(1,-1)"><g data-mml-node="math"><g data-mml-node="mover"><g data-mml-node="mi"><use data-c="1D457" xlink:href="#MJX-97-TEX-I-1D457" fill="#ffffff"/></g><g data-mml-node="mo" transform="translate(206,777) translate(-500 0)"><use data-c="2192" xlink:href="#MJX-97-TEX-N-2192" fill="#ffffff"/></g></g><g data-mml-node="mo" transform="translate(689.8,0)"><use data-c="3D" xlink:href="#MJX-97-TEX-N-3D" fill="#ffffff"/></g><g data-mml-node="mtable" transform="translate(1467.8,0)"><g data-mml-node="mtr" transform="translate(0,700)"><g data-mml-node="mtd" transform="translate(250,0)"><g data-mml-node="mn"><use data-c="30" xlink:href="#MJX-97-TEX-N-30" fill="#ffffff"/></g></g></g><g data-mml-node="mtr" transform="translate(0,-700)"><g data-mml-node="mtd"><g data-mml-node="mtext"><use data-c="A0" xlink:href="#MJX-97-TEX-N-A0" fill="#ffffff"/></g><g data-mml-node="mn" transform="translate(250,0)"><use data-c="31" xlink:href="#MJX-97-TEX-N-31" fill="#ffffff"/></g><g data-mml-node="mtext" transform="translate(750,0)"><use data-c="A0" xlink:href="#MJX-97-TEX-N-A0" fill="#ffffff"/></g></g></g></g><g data-mml-node="TeXAtom" data-mjx-texclass="CLOSE" transform="translate(2467.8,0)"><g data-mml-node="mo" transform="translate(0 -0.5)"><use data-c="5D" xlink:href="#MJX-97-TEX-SO-5D" fill="#ffffff"/></g></g></g></g></svg>