<svg xmlns="http://www.w3.org/2000/svg" xmlns:xlink="http://www.w3.org/1999/xlink" width="148.600px" height="54.300px" viewBox="0 -1450 6568.3 2400" aria-hidden="true" style=""><defs fill="#ffffff"><path id="MJX-99-TEX-N-33" d="M127 463Q100 463 85 480T69 524Q69 579 117 622T233 665Q268 665 277 664Q351 652 390 611T430 522Q430 470 396 421T302 350L299 348Q299 347 308 345T337 336T375 315Q457 262 457 175Q457 96 395 37T238 -22Q158 -22 100 21T42 130Q42 158 60 175T105 193Q133 193 151 175T169 130Q169 119 166 110T159 94T148 82T136 74T126 70T118 67L114 66Q165 21 238 21Q293 21 321 74Q338 107 338 175V195Q338 290 274 322Q259 328 213 329L171 330L168 332Q166 335 166 348Q166 366 174 366Q202 366 232 371Q266 376 294 413T322 525V533Q322 590 287 612Q265 626 240 626Q208 626 181 615T143 592T132 580H135Q138 579 143 578T153 573T165 566T175 555T183 540T186 520Q186 498 172 481T127 463Z" fill="#ffffff"/><path id="MJX-99-TEX-I-1D456" d="M184 600Q184 624 203 642T247 661Q265 661 277 649T290 619Q290 596 270 577T226 557Q211 557 198 567T184 600ZM21 287Q21 295 30 318T54 369T98 420T158 442Q197 442 223 419T250 357Q250 340 236 301T196 196T154 83Q149 61 149 51Q149 26 166 26Q175 26 185 29T208 43T235 78T260 137Q263 149 265 151T282 153Q302 153 302 143Q302 135 293 112T268 61T223 11T161 -11Q129 -11 102 10T74 74Q74 91 79 106T122 220Q160 321 166 341T173 380Q173 404 156 404H154Q124 404 99 371T61 287Q60 286 59 284T58 281T56 279T53 278T49 278T41 278H27Q21 284 21 287Z" fill="#ffffff"/><path id="MJX-99-TEX-N-2192" d="M56 237T56 250T70 270H835Q719 357 692 493Q692 494 692 496T691 499Q691 511 708 511H711Q720 511 723 510T729 506T732 497T735 481T743 456Q765 389 816 336T935 261Q944 258 944 250Q944 244 939 241T915 231T877 212Q836 186 806 152T761 85T740 35T732 4Q730 -6 727 -8T711 -11Q691 -11 691 0Q691 7 696 25Q728 151 835 230H70Q56 237 56 250Z" fill="#ffffff"/><path id="MJX-99-TEX-N-3D" d="M56 347Q56 360 70 367H707Q722 359 722 347Q722 336 708 328L390 327H72Q56 332 56 347ZM56 153Q56 168 72 173H708Q722 163 722 153Q722 140 707 133H70Q56 140 56 153Z" fill="#ffffff"/><path id="MJX-99-TEX-N-31" d="M213 578L200 573Q186 568 160 563T102 556H83V602H102Q149 604 189 617T245 641T273 663Q275 666 285 666Q294 666 302 660V361L303 61Q310 54 315 52T339 48T401 46H427V0H416Q395 3 257 3Q121 3 100 0H88V46H114Q136 46 152 46T177 47T193 50T201 52T207 57T213 61V578Z" fill="#ffffff"/><path id="MJX-99-TEX-N-A0" d="" fill="#ffffff"/><path id="MJX-99-TEX-N-30" d="M96 585Q152 666 249 666Q297 666 345 640T423 548Q460 465 460 320Q460 165 417 83Q397 41 362 16T301 -15T250 -22Q224 -22 198 -16T137 16T82 83Q39 165 39 320Q39 494 96 585ZM321 597Q291 629 250 629Q208 629 178 597Q153 571 145 525T137 333Q137 175 145 125T181 46Q209 16 250 16Q290 16 318 46Q347 76 354 130T362 333Q362 478 354 524T321 597Z" fill="#ffffff"/><path id="MJX-99-TEX-SO-5D" d="M22 810V850H214V-349H22V-309H174V810H22Z" fill="#ffffff"/></defs><g stroke="currentColor" fill="currentColor" stroke-width="0" transform="scale(1,-1)"><g data-mml-node="math"><g data-mml-node="mover"><g data-mml-node="mrow"><g data-mml-node="mn"><use data-c="33" xlink:href="#MJX-99-TEX-N-33" fill="#ffffff"/></g><g data-mml-node="mi" transform="translate(500,0)"><use data-c="1D456" xlink:href="#MJX-99-TEX-I-1D456" fill="#ffffff"/></g></g><g data-mml-node="mo" transform="translate(422.5,781) translate(-500 0)"><use data-c="2192" xlink:href="#MJX-99-TEX-N-2192" fill="#ffffff"/></g></g><g data-mml-node="mo" transform="translate(1122.8,0)"><use data-c="3D" xlink:href="#MJX-99-TEX-N-3D" fill="#ffffff"/></g><g data-mml-node="mn" transform="translate(2178.6,0)"><use data-c="33" xlink:href="#MJX-99-TEX-N-33" fill="#ffffff"/></g><g data-mml-node="mtable" transform="translate(2678.6,0)"><g data-mml-node="mtr" transform="translate(0,700)"><g data-mml-node="mtd" transform="translate(250,0)"><g data-mml-node="mn"><use data-c="31" xlink:href="#MJX-99-TEX-N-31" fill="#ffffff"/></g></g></g><g data-mml-node="mtr" transform="translate(0,-700)"><g data-mml-node="mtd"><g data-mml-node="mtext"><use data-c="A0" xlink:href="#MJX-99-TEX-N-A0" fill="#ffffff"/></g><g data-mml-node="mn" transform="translate(250,0)"><use data-c="30" xlink:href="#MJX-99-TEX-N-30" fill="#ffffff"/></g><g data-mml-node="mtext" transform="translate(750,0)"><use data-c="A0" xlink:href="#MJX-99-TEX-N-A0" fill="#ffffff"/></g></g></g></g><g data-mml-node="TeXAtom" data-mjx-texclass="CLOSE" transform="translate(3678.6,0)"><g data-mml-node="mo" transform="translate(0 -0.5)"><use data-c="5D" xlink:href="#MJX-99-TEX-SO-5D" fill="#ffffff"/></g></g><g data-mml-node="mo" transform="translate(4373.3,0)"><use data-c="3D" xlink:href="#MJX-99-TEX-N-3D" fill="#ffffff"/></g><g data-mml-node="mtable" transform="translate(5151.3,0)"><g data-mml-node="mtr" transform="translate(0,700)"><g data-mml-node="mtd" transform="translate(250,0)"><g data-mml-node="mn"><use data-c="33" xlink:href="#MJX-99-TEX-N-33" fill="#ffffff"/></g></g></g><g data-mml-node="mtr" transform="translate(0,-700)"><g data-mml-node="mtd"><g data-mml-node="mtext"><use data-c="A0" xlink:href="#MJX-99-TEX-N-A0" fill="#ffffff"/></g><g data-mml-node="mn" transform="translate(250,0)"><use data-c="30" xlink:href="#MJX-99-TEX-N-30" fill="#ffffff"/></g><g data-mml-node="mtext" transform="translate(750,0)"><use data-c="A0" xlink:href="#MJX-99-TEX-N-A0" fill="#ffffff"/></g></g></g></g><g data-mml-node="TeXAtom" data-mjx-texclass="CLOSE" transform="translate(6151.3,0)"><g data-mml-node="mo" transform="translate(0 -0.5)"><use data-c="5D" xlink:href="#MJX-99-TEX-SO-5D" fill="#ffffff"/></g></g></g></g></svg>