<svg xmlns="http://www.w3.org/2000/svg" xmlns:xlink="http://www.w3.org/1999/xlink" width="137.930px" height="31.670px" viewBox="0 -950 6096.6 1400" aria-hidden="true" style=""><defs fill="#ffffff"><path id="MJX-139-TEX-I-1D434" d="M208 74Q208 50 254 46Q272 46 272 35Q272 34 270 22Q267 8 264 4T251 0Q249 0 239 0T205 1T141 2Q70 2 50 0H42Q35 7 35 11Q37 38 48 46H62Q132 49 164 96Q170 102 345 401T523 704Q530 716 547 716H555H572Q578 707 578 706L606 383Q634 60 636 57Q641 46 701 46Q726 46 726 36Q726 34 723 22Q720 7 718 4T704 0Q701 0 690 0T651 1T578 2Q484 2 455 0H443Q437 6 437 9T439 27Q443 40 445 43L449 46H469Q523 49 533 63L521 213H283L249 155Q208 86 208 74ZM516 260Q516 271 504 416T490 562L463 519Q447 492 400 412L310 260L413 259Q516 259 516 260Z" fill="#ffffff"/><path id="MJX-139-TEX-N-3D" d="M56 347Q56 360 70 367H707Q722 359 722 347Q722 336 708 328L390 327H72Q56 332 56 347ZM56 153Q56 168 72 173H708Q722 163 722 153Q722 140 707 133H70Q56 140 56 153Z" fill="#ffffff"/><path id="MJX-139-TEX-I-1D444" d="M399 -80Q399 -47 400 -30T402 -11V-7L387 -11Q341 -22 303 -22Q208 -22 138 35T51 201Q50 209 50 244Q50 346 98 438T227 601Q351 704 476 704Q514 704 524 703Q621 689 680 617T740 435Q740 255 592 107Q529 47 461 16L444 8V3Q444 2 449 -24T470 -66T516 -82Q551 -82 583 -60T625 -3Q631 11 638 11Q647 11 649 2Q649 -6 639 -34T611 -100T557 -165T481 -194Q399 -194 399 -87V-80ZM636 468Q636 523 621 564T580 625T530 655T477 665Q429 665 379 640Q277 591 215 464T153 216Q153 110 207 59Q231 38 236 38V46Q236 86 269 120T347 155Q372 155 390 144T417 114T429 82T435 55L448 64Q512 108 557 185T619 334T636 468ZM314 18Q362 18 404 39L403 49Q399 104 366 115Q354 117 347 117Q344 117 341 117T337 118Q317 118 296 98T274 52Q274 18 314 18Z" fill="#ffffff"/><path id="MJX-139-TEX-LO-22C0" d="M1055 -401Q1055 -419 1042 -434T1007 -450Q977 -450 963 -423Q959 -417 757 167L555 750L353 167Q151 -417 147 -423Q134 -450 104 -450Q84 -450 70 -436T55 -401Q55 -394 56 -390Q59 -381 284 270T512 925Q525 950 555 950Q583 950 597 926Q599 923 825 270T1054 -391Q1055 -394 1055 -401Z" fill="#ffffff"/><path id="MJX-139-TEX-N-2212" d="M84 237T84 250T98 270H679Q694 262 694 250T679 230H98Q84 237 84 250Z" fill="#ffffff"/><path id="MJX-139-TEX-N-31" d="M213 578L200 573Q186 568 160 563T102 556H83V602H102Q149 604 189 617T245 641T273 663Q275 666 285 666Q294 666 302 660V361L303 61Q310 54 315 52T339 48T401 46H427V0H416Q395 3 257 3Q121 3 100 0H88V46H114Q136 46 152 46T177 47T193 50T201 52T207 57T213 61V578Z" fill="#ffffff"/></defs><g stroke="currentColor" fill="currentColor" stroke-width="0" transform="scale(1,-1)"><g data-mml-node="math"><g data-mml-node="mi"><use data-c="1D434" xlink:href="#MJX-139-TEX-I-1D434" fill="#ffffff"/></g><g data-mml-node="mo" transform="translate(1027.8,0)"><use data-c="3D" xlink:href="#MJX-139-TEX-N-3D" fill="#ffffff"/></g><g data-mml-node="mi" transform="translate(2083.6,0)"><use data-c="1D444" xlink:href="#MJX-139-TEX-I-1D444" fill="#ffffff"/></g><g data-mml-node="mo" transform="translate(3041.2,0)"><use data-c="22C0" xlink:href="#MJX-139-TEX-LO-22C0" fill="#ffffff"/></g><g data-mml-node="msup" transform="translate(4318.9,0)"><g data-mml-node="mi"><use data-c="1D444" xlink:href="#MJX-139-TEX-I-1D444" fill="#ffffff"/></g><g data-mml-node="TeXAtom" transform="translate(824,413) scale(0.707)" data-mjx-texclass="ORD"><g data-mml-node="mo"><use data-c="2212" xlink:href="#MJX-139-TEX-N-2212" fill="#ffffff"/></g><g data-mml-node="mn" transform="translate(778,0)"><use data-c="31" xlink:href="#MJX-139-TEX-N-31" fill="#ffffff"/></g></g></g></g></g></svg>