<?xml version="1.0" standalone="no"?>
<!DOCTYPE svg PUBLIC "-//W3C//DTD SVG 20010904//EN"
 "http://www.w3.org/TR/2001/REC-SVG-20010904/DTD/svg10.dtd">
<svg version="1.0" xmlns="http://www.w3.org/2000/svg"
 width="1000.000000pt" height="1000.000000pt" viewBox="0 0 1000.000000 1000.000000"
 preserveAspectRatio="xMidYMid meet">

<g transform="translate(0.000000,1000.000000) scale(0.100000,-0.100000)"
fill="#000000" stroke="none">
<path d="M0 5000 l0 -5000 5000 0 5000 0 0 5000 0 5000 -5000 0 -5000 0 0
-5000z m3220 3590 c0 -5 23 -10 50 -10 28 0 50 -4 50 -10 0 -5 9 -10 20 -10
11 0 20 -4 20 -10 0 -5 9 -10 20 -10 11 0 20 -4 20 -10 0 -5 7 -10 16 -10 9 0
29 -13 44 -30 15 -16 36 -30 47 -31 10 0 13 -3 6 -6 -8 -3 2 -19 27 -43 22
-21 40 -46 40 -54 0 -9 5 -16 10 -16 6 0 10 -9 10 -20 0 -11 5 -20 10 -20 6 0
10 -16 10 -36 0 -21 4 -33 10 -29 6 4 10 -33 10 -104 0 -67 -4 -111 -10 -111
-5 0 -10 -13 -10 -30 0 -16 -4 -30 -10 -30 -5 0 -10 -13 -10 -28 0 -16 -8 -34
-20 -42 -11 -8 -20 -21 -20 -28 0 -18 -128 -142 -146 -142 -8 0 -14 -4 -14
-10 0 -5 -9 -10 -20 -10 -11 0 -20 -4 -20 -10 0 -5 -7 -10 -16 -10 -43 0 -44
-14 -42 -322 l3 -293 328 -3 c322 -2 327 -2 327 18 0 11 5 20 10 20 6 0 10 8
10 18 0 10 9 24 20 32 11 8 20 20 20 27 0 15 80 97 99 101 7 1 22 11 34 22 11
11 31 20 44 20 13 0 23 5 23 10 0 6 9 10 20 10 11 0 20 5 20 10 0 7 49 10 140
9 80 0 138 -5 134 -10 -3 -5 6 -9 20 -9 14 0 26 -4 26 -10 0 -5 9 -10 20 -10
11 0 20 -4 20 -10 0 -5 8 -10 18 -10 10 0 24 -9 32 -20 8 -11 20 -20 28 -20
16 0 42 -24 42 -39 0 -6 5 -11 10 -11 6 0 10 -6 10 -13 0 -7 9 -19 20 -27 11
-8 20 -22 20 -32 0 -10 5 -18 10 -18 6 0 10 -9 10 -20 0 -11 5 -20 10 -20 6 0
10 -14 10 -31 0 -17 4 -28 10 -24 6 4 10 -38 10 -119 0 -77 -4 -126 -10 -126
-5 0 -10 -13 -10 -30 0 -16 -4 -30 -10 -30 -5 0 -10 -9 -10 -20 0 -11 -4 -20
-10 -20 -5 0 -10 -8 -10 -18 0 -10 -9 -24 -20 -32 -11 -8 -20 -20 -20 -28 0
-15 -45 -62 -60 -62 -5 0 -10 -4 -10 -10 0 -5 -6 -10 -13 -10 -7 0 -19 -9 -27
-20 -8 -11 -22 -20 -32 -20 -10 0 -18 -4 -18 -10 0 -5 -13 -10 -30 -10 -16 0
-30 -4 -30 -10 0 -5 -20 -10 -44 -10 -25 0 -48 -4 -51 -10 -3 -5 -24 -10 -45
-10 -21 0 -42 5 -45 10 -3 6 -26 10 -51 10 -24 0 -44 5 -44 10 0 6 -13 10 -30
10 -16 0 -30 5 -30 10 0 6 -8 10 -18 10 -10 0 -24 9 -32 20 -8 11 -20 20 -27
20 -17 0 -103 86 -103 103 0 7 -9 19 -20 27 -11 8 -20 22 -20 32 0 10 -4 18
-10 18 -5 0 -10 9 -10 20 0 11 -7 20 -15 20 -8 0 -15 5 -15 10 0 6 -105 10
-295 10 -190 0 -295 -4 -295 -10 0 -6 -3 -9 -7 -9 -33 5 -33 1 -33 -391 l0
-390 805 0 805 0 399 399 c220 220 402 397 405 394 3 -4 6 -1 6 6 0 15 66 81
74 74 3 -4 6 -2 6 3 0 14 46 64 59 64 6 0 16 10 21 23 5 12 9 16 9 9 1 -10 4
-10 15 0 8 7 12 16 9 21 -2 4 1 7 7 7 15 0 40 25 40 41 0 7 3 10 6 6 3 -3 59
48 124 113 65 65 121 116 124 113 3 -4 6 -1 6 6 0 19 48 62 53 48 3 -7 6 -1 6
13 1 15 4 20 9 14 5 -9 10 -8 19 1 10 11 10 15 0 18 -7 3 1 6 16 6 25 1 27 4
22 24 -5 14 5 7 25 -20 28 -39 52 -60 35 -32 -4 6 2 5 13 -2 12 -7 18 -17 16
-21 -3 -4 6 -8 20 -8 16 0 26 -6 26 -15 0 -8 9 -19 20 -25 15 -8 19 -17 15
-31 -5 -14 -3 -17 9 -13 9 3 16 1 16 -5 0 -15 -37 -14 -42 1 -3 7 -7 6 -11 -5
-5 -13 -1 -17 14 -17 16 0 10 -10 -30 -49 -28 -27 -51 -55 -51 -61 0 -6 -4 -8
-10 -5 -5 3 -10 -3 -10 -14 0 -12 -7 -21 -15 -21 -8 0 -15 -4 -15 -10 0 -5 -7
-10 -15 -10 -8 0 -15 -7 -15 -15 0 -8 -225 -240 -500 -515 -275 -275 -500
-506 -500 -512 0 -6 -3 -9 -6 -5 -6 6 -74 -57 -74 -68 0 -4 -18 -23 -40 -42
-22 -20 -40 -42 -40 -50 0 -7 -5 -13 -10 -13 -6 0 -22 -11 -36 -25 -14 -14
-22 -25 -19 -25 9 0 -43 -50 -52 -50 -4 0 -19 -9 -33 -20 -24 -19 -48 -20
-997 -20 -642 0 -973 3 -973 10 0 6 -7 10 -16 10 -44 0 -44 0 -46 562 l-3 533
-617 3 c-610 2 -618 2 -618 22 0 11 -4 20 -10 20 -6 0 -10 42 -10 105 0 99 2
107 25 130 l24 25 606 0 605 0 0 306 c0 320 -2 334 -44 334 -9 0 -16 5 -16 10
0 6 -7 10 -15 10 -21 0 -165 144 -165 165 0 8 -4 15 -10 15 -5 0 -10 9 -10 20
0 11 -4 20 -10 20 -5 0 -10 11 -10 24 0 14 -4 28 -10 31 -5 3 -10 33 -10 66 0
38 -4 58 -10 54 -5 -3 -10 1 -10 10 0 9 5 13 10 10 6 -4 10 18 10 59 0 37 4
66 10 66 6 0 10 14 10 30 0 17 5 30 10 30 6 0 10 10 10 23 0 18 2 19 10 7 8
-12 10 -11 10 8 0 12 4 22 8 22 5 0 15 12 23 28 16 30 54 72 66 72 4 0 24 14
43 30 19 16 43 30 53 30 10 0 15 5 12 10 -4 6 7 10 24 10 17 0 31 5 31 10 0 6
23 10 50 10 28 0 50 5 50 10 0 6 23 10 50 10 28 0 50 -4 50 -10z m3390 -2630
c0 -11 7 -20 15 -20 8 0 15 -4 15 -10 0 -5 4 -10 9 -10 15 0 71 -60 71 -76 0
-8 11 -14 28 -15 l27 -1 -30 -8 c-28 -7 -29 -8 -5 -10 14 -1 19 -4 13 -7 -7
-2 -13 -11 -13 -19 0 -8 -49 -64 -110 -124 -60 -60 -110 -114 -110 -120 0 -6
-99 -109 -220 -230 l-220 -220 122 -124 c68 -69 128 -131 134 -138 6 -7 22
-22 37 -32 14 -11 24 -23 21 -28 -3 -4 0 -8 7 -8 7 0 9 -3 6 -6 -9 -9 44 -54
63 -55 10 0 11 -2 3 -5 -7 -3 39 -56 107 -124 66 -66 120 -124 120 -129 0 -5
9 -13 20 -16 15 -5 20 -15 20 -41 0 -31 -18 -64 -34 -64 -6 0 -66 -60 -66 -66
0 -8 -23 -27 -47 -41 -17 -10 -24 -8 -44 10 -13 12 -26 22 -29 22 -9 -1 -42
29 -156 143 -63 61 -119 112 -126 112 -6 0 -9 3 -5 6 6 6 -37 54 -48 54 -12 0
-34 28 -28 34 4 3 1 6 -5 6 -17 0 -39 19 -198 178 l-144 142 -2005 0 c-1330 0
-2005 3 -2005 10 0 6 -9 10 -20 10 -11 0 -20 7 -20 16 0 8 -5 12 -10 9 -6 -4
-10 35 -10 111 0 107 2 118 21 135 12 10 26 16 30 13 5 -3 9 0 9 5 0 8 598 11
1995 11 l1996 0 109 110 c62 63 111 104 114 97 2 -7 5 -5 5 5 1 10 10 22 21
28 11 6 20 18 20 28 0 15 2 15 10 2 8 -12 10 -10 11 10 0 14 3 20 5 13 3 -7
92 75 202 185 109 108 214 208 235 222 20 14 37 28 37 33 0 4 11 7 25 7 18 0
25 -5 25 -20z m-936 -2084 c343 -343 622 -627 619 -630 -4 -3 -1 -6 5 -6 16 0
62 -48 62 -65 0 -7 9 -17 20 -20 11 -3 20 -10 20 -15 0 -5 31 -40 70 -79 62
-63 69 -78 36 -72 -5 1 -4 -5 4 -13 11 -14 9 -16 -9 -16 -11 0 -21 -6 -21 -14
0 -17 -88 -108 -99 -101 -5 3 -11 -2 -15 -10 -8 -21 -19 -19 -50 10 -14 13
-26 23 -26 21 0 -2 -54 49 -120 114 -65 65 -121 115 -125 112 -3 -3 -5 2 -5
11 0 10 -6 17 -12 17 -7 0 -27 17 -45 37 -18 20 -33 34 -33 30 0 -3 -11 5 -25
19 -14 14 -25 29 -25 34 0 6 -4 10 -10 10 -5 0 -219 209 -475 465 -256 256
-469 465 -475 465 -5 0 -10 5 -10 10 0 7 -277 10 -811 10 -537 0 -808 -3 -804
-10 3 -5 1 -10 -4 -10 -8 0 -11 -124 -11 -396 0 -329 2 -398 14 -410 12 -11
70 -14 330 -14 l316 0 0 25 c0 14 5 25 10 25 6 0 10 7 10 15 0 8 5 15 10 15 6
0 10 8 10 18 0 10 9 24 20 32 11 8 20 19 20 25 0 6 10 17 21 25 12 8 37 30 55
48 18 17 40 32 49 32 8 0 15 5 15 10 0 6 9 10 20 10 11 0 20 5 20 10 0 6 14
10 30 10 17 0 30 5 30 10 0 6 47 10 120 10 73 0 120 -4 120 -10 0 -5 14 -10
30 -10 17 0 30 -4 30 -10 0 -5 9 -10 20 -10 11 0 20 -4 20 -10 0 -5 7 -10 15
-10 9 0 49 -34 90 -75 41 -41 75 -82 75 -90 0 -8 5 -15 10 -15 6 0 10 -9 10
-20 0 -11 5 -20 10 -20 6 0 10 -13 10 -30 0 -16 5 -30 10 -30 6 0 10 -50 10
-130 0 -80 -4 -130 -10 -130 -5 0 -10 -13 -10 -30 0 -16 -4 -30 -10 -30 -5 0
-10 -9 -10 -20 0 -11 -4 -20 -10 -20 -5 0 -10 -7 -10 -15 0 -20 -145 -165
-165 -165 -8 0 -15 -4 -15 -10 0 -5 -9 -10 -20 -10 -11 0 -20 -4 -20 -10 0 -5
-13 -10 -30 -10 -16 0 -30 -4 -30 -10 0 -6 -48 -10 -125 -10 -77 0 -125 4
-125 10 0 6 -14 10 -31 10 -17 0 -28 4 -24 10 3 6 -3 10 -14 10 -12 0 -21 5
-21 10 0 6 -8 10 -18 10 -10 0 -24 9 -32 20 -8 11 -23 20 -33 20 -10 0 -15 5
-12 10 3 6 1 10 -5 10 -13 0 -40 25 -40 37 0 4 -12 21 -26 38 -14 16 -33 45
-42 65 -29 63 -14 60 -342 60 -248 0 -304 -3 -316 -14 -21 -21 -21 -511 0
-532 8 -8 18 -14 23 -14 15 0 63 -25 63 -32 0 -5 8 -8 18 -8 10 0 24 -9 32
-20 8 -11 21 -20 29 -20 8 0 12 -3 8 -6 -3 -4 12 -24 33 -44 22 -21 40 -44 40
-50 0 -6 5 -8 10 -5 6 3 10 -3 10 -14 0 -12 5 -21 10 -21 6 0 10 -12 10 -26 0
-14 4 -23 10 -19 6 4 10 -10 10 -34 0 -23 5 -41 10 -41 6 0 10 -42 10 -105 0
-63 -4 -105 -10 -105 -5 0 -10 -16 -10 -35 0 -19 -4 -35 -10 -35 -5 0 -10 -9
-10 -20 0 -11 -4 -20 -10 -20 -5 0 -10 -8 -10 -18 0 -10 -9 -24 -20 -32 -11
-8 -20 -20 -20 -28 0 -17 -65 -82 -82 -82 -8 0 -20 -9 -28 -20 -8 -11 -22 -20
-32 -20 -10 0 -18 -4 -18 -10 0 -5 -9 -10 -20 -10 -11 0 -20 -4 -20 -10 0 -5
-16 -10 -36 -10 -21 0 -33 -4 -29 -10 4 -6 -31 -10 -99 -10 -59 0 -108 4 -111
10 -3 5 -19 10 -36 10 -16 0 -29 5 -29 10 0 6 -9 10 -20 10 -11 0 -20 5 -20
10 0 6 -9 10 -20 10 -11 0 -20 5 -20 10 0 6 -7 10 -15 10 -19 0 -125 104 -125
123 0 7 -9 19 -20 27 -11 8 -20 22 -20 32 0 10 -4 18 -10 18 -5 0 -10 14 -10
30 0 17 -4 30 -10 30 -6 0 -10 27 -10 61 0 37 -4 58 -10 54 -6 -3 -10 5 -10
19 0 14 5 28 10 31 6 3 10 31 10 61 0 30 5 54 10 54 6 0 10 9 10 20 0 11 6 20
13 20 8 0 7 4 -3 10 -10 6 -11 10 -2 10 6 0 12 7 12 15 0 8 5 15 10 15 6 0 10
6 10 13 0 7 9 19 20 27 11 8 20 20 20 28 0 17 45 62 62 62 8 0 20 9 28 20 8
11 20 20 28 20 7 0 10 5 7 10 -4 6 -3 10 2 9 22 -4 43 2 38 11 -3 6 3 10 14
10 21 0 21 4 21 280 l0 280 -620 0 c-613 0 -620 0 -620 20 0 11 -4 20 -10 20
-6 0 -10 43 -10 110 0 67 4 110 10 110 6 0 10 6 10 14 0 8 7 17 16 20 9 3 288
6 620 6 l604 0 0 557 c0 306 3 553 7 550 3 -4 12 2 20 13 14 20 27 20 1019 20
l1004 0 624 -624z m1083 492 c-3 -7 -5 -2 -5 12 0 14 2 19 5 13 2 -7 2 -19 0
-25z"/>
<path d="M3155 8270 c4 -6 -8 -10 -30 -10 -44 0 -105 -55 -105 -95 0 -14 -4
-25 -10 -25 -5 0 -10 -10 -10 -22 0 -19 2 -20 10 -8 8 12 10 9 10 -13 0 -43
36 -97 64 -97 9 0 16 -4 16 -10 0 -6 28 -10 65 -10 64 0 66 1 110 45 42 42 45
48 45 100 0 30 -4 55 -10 55 -5 0 -10 7 -10 16 0 8 -6 22 -14 30 -8 8 -22 14
-30 14 -9 0 -16 5 -16 10 0 6 -13 10 -30 10 -16 0 -30 5 -30 10 0 6 -7 10 -16
10 -8 0 -12 -4 -9 -10z"/>
<path d="M4293 7005 c-18 -19 -33 -44 -33 -55 0 -11 -5 -20 -10 -20 -6 0 -10
-15 -8 -34 1 -19 6 -32 10 -30 4 3 8 -4 8 -16 0 -11 16 -36 35 -55 33 -33 38
-35 105 -35 62 0 74 3 95 25 14 13 25 31 25 40 0 8 5 15 10 15 6 0 10 27 10
60 0 33 -4 60 -10 60 -5 0 -10 7 -10 16 0 37 -56 64 -132 63 -58 0 -66 -3 -95
-34z"/>
<path d="M4340 3350 c0 -5 -7 -10 -15 -10 -25 0 -65 -46 -65 -75 0 -14 -4 -25
-10 -25 -5 0 -10 -13 -10 -30 0 -16 5 -30 10 -30 6 0 10 -11 10 -25 0 -29 40
-75 65 -75 8 0 15 -4 15 -10 0 -6 27 -10 60 -10 33 0 60 4 60 10 0 6 7 10 16
10 20 0 44 24 44 44 0 9 5 16 10 16 6 0 10 30 10 70 0 40 -4 70 -10 70 -5 0
-10 9 -10 20 0 11 -3 19 -7 19 -20 -3 -34 2 -28 11 3 6 -1 10 -9 10 -9 0 -16
5 -16 10 0 6 -27 10 -60 10 -33 0 -60 -4 -60 -10z"/>
<path d="M6488 3003 c7 -3 16 -2 19 1 4 3 -2 6 -13 5 -11 0 -14 -3 -6 -6z"/>
<path d="M3156 2211 c-4 -6 -21 -11 -37 -11 -35 0 -99 -58 -99 -90 0 -12 -5
-30 -10 -40 -7 -13 -7 -21 0 -25 5 -3 10 -17 10 -31 0 -28 60 -94 85 -94 8 0
15 -4 15 -10 0 -5 23 -10 50 -10 28 0 50 5 50 10 0 6 7 10 15 10 20 0 65 45
65 65 0 8 5 15 10 15 6 0 10 25 10 56 0 46 -4 60 -22 75 -11 11 -16 19 -9 19
9 0 8 5 -3 15 -8 8 -22 15 -30 15 -9 0 -16 5 -16 10 0 6 -13 10 -28 10 -15 0
-33 5 -39 11 -8 8 -13 8 -17 0z"/>
</g>
</svg>
